#!OML:ASF I:\Actors\actors\Patient Classification 2\Patient 1\Session 1\actor1.ASF
:FULLY-SPECIFIED
:DEGREES
390
root -0.294679 17.0166 4.50535 8.02822 -6.22642 -8.86843
lowerback 25.3078 -0.604351 -8.54117
upperback 0.770763 -4.36457 -7.67271
thorax -13.412 -1.76609 -2.36438
lowerneck -13.812 0.647914 0.873263
upperneck 33.5162 -3.10656 10.6855
head 13.9289 0.0630962 3.64407
rclavicle -5.24792e-014 -5.40694e-014
rhumerus -5.47204 -18.3459 -8.43082
rradius 121.601
rwrist -66.5168
rhand 39.8337 -27.0189
rfingers 7.12502
rthumb 62.2572 -38.1888
lclavicle -5.24792e-014 -5.40694e-014
lhumerus -39.9051 -43.0162 50.4157
lradius 128.867
lwrist 41.3448
lhand 12.4461 -10.9511
lfingers 7.12502
lthumb 37.4425 14.9977
rfemur -32.3654 -7.01842 22.2747
rtibia 52.5419
rfoot -23.9584 6.68992
rtoes -21.7905
lfemur -38.1464 15.9434 -6.07301
ltibia 63.3049
lfoot -28.174 -1.99666
ltoes -58.3365
391
root -0.287389 17.0174 4.48414 7.98989 -6.17248 -8.82211
lowerback 25.3417 -0.64696 -8.51733
upperback 0.869747 -4.37839 -7.50016
thorax -13.2962 -1.76913 -2.16808
lowerneck -13.7005 0.93171 1.21123
upperneck 34.1949 -3.10521 11.3755
head 14.2368 0.201581 3.91039
rclavicle 1.59028e-015 9.54166e-015
rhumerus -2.25763 -22.3323 -8.16582
rradius 121.242
rwrist -68.5507
rhand 38.258 -25.8736
rfingers 7.12502
rthumb 60.936 -38.6322
lclavicle 1.59028e-015 9.54166e-015
lhumerus -40.6054 -42.2127 52.374
lradius 128.88
lwrist 42.3001
lhand 10.6251 -11.1131
lfingers 7.12502
lthumb 35.719 15.2719
rfemur -32.3831 -7.14003 22.2228
rtibia 52.4798
rfoot -23.8324 6.72407
rtoes -21.6898
lfemur -38.1882 15.848 -6.15816
ltibia 63.2336
lfoot -28.1098 -1.92614
ltoes -58.3839
392
root -0.281259 17.0196 4.46472 7.93539 -6.14523 -8.77102
lowerback 25.4128 -0.670367 -8.486
upperback 0.967132 -4.37657 -7.36465
thorax -13.2079 -1.76691 -2.02508
lowerneck -13.4388 1.2347 1.55771
upperneck 34.5942 -3.04274 12.0717
head 14.3828 0.358961 4.17287
rclavicle 3.02153e-014 3.18055e-015
rhumerus 0.759433 -25.9123 -8.03928
rradius 121.038
rwrist -70.7182
rhand 36.7038 -25.3381
rfingers 7.12502
rthumb 59.6112 -39.5202
lclavicle 3.02153e-014 3.18055e-015
lhumerus -41.2551 -41.4587 54.3001
lradius 128.866
lwrist 43.3318
lhand 9.36329 -11.2789
lfingers 7.12502
lthumb 34.5222 15.3874
rfemur -32.3871 -7.25923 22.1656
rtibia 52.4446
rfoot -23.6994 6.80956
rtoes -21.4812
lfemur -38.2011 15.7892 -6.23823
ltibia 63.1799
lfoot -28.066 -1.88647
ltoes -58.369
393
root -0.276379 17.0211 4.44656 7.91515 -6.10466 -8.7106
lowerback 25.4539 -0.706121 -8.48384
upperback 1.05485 -4.40465 -7.28561
thorax -13.1178 -1.77918 -1.92136
lowerneck -14.4605 1.40995 0.18488
upperneck 36.2761 -3.56794 14.6248
head 15.5886 0.325321 5.63549
rclavicle -4.77083e-015 -2.22639e-014
rhumerus 3.70555 -29.1022 -8.34818
rradius 120.988
rwrist -72.7043
rhand 35.5868 -25.2342
rfingers 7.12502
rthumb 58.6472 -40.3603
lclavicle -4.77083e-015 -2.22639e-014
lhumerus -41.8131 -40.7268 56.0823
lradius 128.887
lwrist 44.4764
lhand 8.56787 -11.1195
lfingers 7.12502
lthumb 33.7668 15.7158
rfemur -32.4371 -7.36755 22.1067
rtibia 52.4288
rfoot -23.6007 6.84413
rtoes -21.4683
lfemur -38.2644 15.7561 -6.33687
ltibia 63.147
lfoot -28.0118 -1.86151
ltoes -58.3893
394
root -0.272417 17.0204 4.4303 7.87618 -6.06425 -8.69404
lowerback 25.5046 -0.763411 -8.51617
upperback 1.18318 -4.4631 -7.18274
thorax -12.9792 -1.80388 -1.75881
lowerneck -13.1003 1.87513 3.19716
upperneck 35.2601 -2.82662 12.5639
head 14.6378 0.728788 4.16322
rclavicle 1.27222e-014 3.18055e-014
rhumerus 6.80142 -31.898 -9.11291
rradius 121.015
rwrist -74.3054
rhand 35.3619 -24.9449
rfingers 7.12502
rthumb 58.452 -40.2537
lclavicle 1.27222e-014 3.18055e-014
lhumerus -42.3752 -39.8557 57.8214
lradius 128.957
lwrist 45.7606
lhand 7.91947 -10.8385
lfingers 7.12502
lthumb 33.1505 16.1298
rfemur -32.4589 -7.47335 22.0949
rtibia 52.4297
rfoot -23.5581 6.85555
rtoes -21.5668
lfemur -38.3022 15.7749 -6.3772
ltibia 63.1387
lfoot -27.9636 -1.91321
ltoes -58.3964
395
root -0.26986 17.0196 4.41625 7.81023 -6.0445 -8.67862
lowerback 25.6122 -0.764247 -8.49702
upperback 1.3186 -4.44074 -7.07867
thorax -12.869 -1.79471 -1.65226
lowerneck -12.97 2.06034 3.99452
upperneck 35.4362 -2.83207 12.6322
head 14.7085 0.839208 4.06035
rclavicle 1.59028e-014 -1.27222e-014
rhumerus 9.62824 -34.2951 -9.81424
rradius 121.12
rwrist -75.5871
rhand 35.9302 -24.1727
rfingers 7.12502
rthumb 58.9445 -39.0153
lclavicle 1.59028e-014 -1.27222e-014
lhumerus -42.9533 -39.1114 59.6787
lradius 129.03
lwrist 46.8681
lhand 7.40283 -10.4986
lfingers 7.12502
lthumb 32.6591 16.573
rfemur -32.4483 -7.57761 22.0821
rtibia 52.4454
rfoot -23.5558 6.86909
rtoes -21.8181
lfemur -38.3058 15.8431 -6.40103
ltibia 63.1529
lfoot -27.938 -2.03094
ltoes -58.3778
396
root -0.267408 17.0182 4.40265 7.78753 -5.95971 -8.60703
lowerback 25.6929 -0.766485 -8.42353
upperback 1.42695 -4.40918 -7.00771
thorax -12.7839 -1.78522 -1.61907
lowerneck -13.0915 2.19122 3.85611
upperneck 35.8086 -2.98668 13.5243
head 14.9648 0.878292 4.48218
rclavicle -3.18055e-014 1.90833e-014
rhumerus 12.0612 -36.3055 -10.4205
rradius 121.325
rwrist -76.6745
rhand 37.0994 -23.3182
rfingers 7.12502
rthumb 59.9503 -37.1506
lclavicle -3.18055e-014 1.90833e-014
lhumerus -43.6554 -38.5715 61.7237
lradius 129.083
lwrist 47.7062
lhand 6.87113 -10.2363
lfingers 7.12502
lthumb 32.153 16.9388
rfemur -32.4981 -7.73393 22.017
rtibia 52.4677
rfoot -23.5081 6.88199
rtoes -22.04
lfemur -38.406 15.8265 -6.49579
ltibia 63.1812
lfoot -27.8965 -2.14208
ltoes -58.3856
397
root -0.264352 17.0158 4.39196 7.73925 -5.82489 -8.56056
lowerback 25.7708 -0.810959 -8.31702
upperback 1.54209 -4.42003 -6.92605
thorax -12.6896 -1.79671 -1.57698
lowerneck -12.9583 2.31296 3.97059
upperneck 35.8797 -3.0115 13.9918
head 14.9929 0.936754 4.66514
rclavicle -2.22639e-014 5.08889e-014
rhumerus 14.2447 -37.9382 -11.1003
rradius 121.684
rwrist -77.6165
rhand 38.8655 -22.5063
rfingers 7.12502
rthumb 61.4483 -34.6707
lclavicle -2.22639e-014 5.08889e-014
lhumerus -44.5035 -38.0476 63.929
lradius 129.105
lwrist 48.4629
lhand 6.19599 -10.2582
lfingers 7.12502
lthumb 31.5101 17.0447
rfemur -32.5007 -7.944 21.9705
rtibia 52.4874
rfoot -23.4197 6.9662
rtoes -21.8198
lfemur -38.4714 15.754 -6.54999
ltibia 63.2077
lfoot -27.8531 -2.25811
ltoes -58.3514
398
root -0.262448 17.0151 4.38517 7.62971 -5.73393 -8.56782
lowerback 25.9149 -0.826974 -8.17923
upperback 1.651 -4.39885 -6.87105
thorax -12.6448 -1.795 -1.59419
lowerneck -12.6572 2.41366 4.40988
upperneck 35.7599 -2.99644 14.1256
head 14.8768 1.00346 4.62789
rclavicle -3.65764e-014 -6.67916e-014
rhumerus 16.0096 -39.2323 -11.69
rradius 122.183
rwrist -78.3808
rhand 40.8375 -21.8191
rfingers 7.12502
rthumb 63.0857 -31.8922
lclavicle -3.65764e-014 -6.67916e-014
lhumerus -45.256 -37.6117 66.156
lradius 129.067
lwrist 49.2699
lhand 5.6045 -10.1825
lfingers 7.12502
lthumb 30.9464 17.2292
rfemur -32.4175 -8.12033 21.9729
rtibia 52.523
rfoot -23.3897 7.03396
rtoes -21.7288
lfemur -38.4174 15.7431 -6.52055
ltibia 63.2404
lfoot -27.8267 -2.38617
ltoes -58.2574
399
root -0.261529 17.0148 4.38156 7.52032 -5.69836 -8.56478
lowerback 26.0498 -0.732092 -8.09208
upperback 1.64554 -4.27213 -6.88913
thorax -12.7358 -1.74048 -1.70831
lowerneck -11.9535 2.40684 5.09563
upperneck 35.5723 -3.13566 14.2147
head 14.6509 1.01328 4.48663
rclavicle 1.59028e-015 -3.18055e-015
rhumerus 16.9968 -40.0731 -11.8658
rradius 122.772
rwrist -78.9615
rhand 42.3425 -21.6864
rfingers 7.12502
rthumb 64.3063 -29.9775
lclavicle 1.59028e-015 -3.18055e-015
lhumerus -46.0091 -37.5545 68.4545
lradius 128.976
lwrist 50.059
lhand 5.18651 -9.83752
lfingers 7.12502
lthumb 30.5479 17.6491
rfemur -32.3439 -8.22885 21.9598
rtibia 52.5969
rfoot -23.3815 7.08256
rtoes -21.7648
lfemur -38.3373 15.7613 -6.50708
ltibia 63.2905
lfoot -27.8341 -2.44513
ltoes -58.2378
400
root -0.263678 17.0085 4.36959 7.56286 -5.49359 -8.50756
lowerback 26.1403 -0.644179 -8.09142
upperback 1.4896 -4.19087 -6.90551
thorax -12.9734 -1.69536 -1.76059
lowerneck -11.3513 2.31715 5.00516
upperneck 35.7557 -3.49919 15.0393
head 14.6661 0.925627 4.80725
rclavicle -2.06736e-014 -4.13472e-014
rhumerus 17.5053 -40.4897 -11.8094
rradius 123.44
rwrist -79.2894
rhand 43.2818 -22.0548
rfingers 7.12502
rthumb 65.0534 -29.1426
lclavicle -2.06736e-014 -4.13472e-014
lhumerus -47.0106 -37.7708 71.0348
lradius 128.807
lwrist 50.5162
lhand 4.77687 -9.67915
lfingers 7.12502
lthumb 30.1571 17.8796
rfemur -32.5091 -8.43331 21.9398
rtibia 52.7406
rfoot -23.3894 7.05285
rtoes -21.8695
lfemur -38.5626 15.5863 -6.58884
ltibia 63.3886
lfoot -27.8071 -2.43161
ltoes -58.2667
401
root -0.266692 16.9977 4.3506 7.72037 -5.14355 -8.4133
lowerback 26.2255 -0.651237 -8.09093
upperback 1.34963 -4.22833 -6.91447
thorax -13.1867 -1.70408 -1.76114
lowerneck -10.8035 2.23265 5.19383
upperneck 35.8042 -3.76749 15.4471
head 14.6097 0.861845 4.90209
rclavicle 3.65764e-014 4.45278e-014
rhumerus 18.1703 -40.6447 -12.0407
rradius 123.973
rwrist -78.9871
rhand 44.1659 -22.3851
rfingers 7.12502
rthumb 65.7452 -28.2704
lclavicle 3.65764e-014 4.45278e-014
lhumerus -47.8424 -37.9931 73.6828
lradius 128.474
lwrist 50.7493
lhand 4.45494 -9.79315
lfingers 7.12502
lthumb 29.8499 17.8212
rfemur -32.8606 -8.73616 21.916
rtibia 52.944
rfoot -23.4322 6.97831
rtoes -22.0378
lfemur -39.0466 15.2669 -6.73984
ltibia 63.5384
lfoot -27.7558 -2.44501
ltoes -58.2688
402
root -0.26822 16.9854 4.33356 7.90375 -4.75145 -8.34558
lowerback 26.2601 -0.70199 -7.99319
upperback 1.29036 -4.28161 -6.95359
thorax -13.2861 -1.73174 -1.84381
lowerneck -10.4648 2.14037 5.48379
upperneck 35.7668 -4.01699 15.6735
head 14.5538 0.803022 4.90151
rclavicle 1.11319e-014 -3.18055e-014
rhumerus 18.7444 -40.5909 -12.357
rradius 124.361
rwrist -78.0369
rhand 44.7856 -22.4342
rfingers 7.12502
rthumb 66.223 -27.4337
lclavicle 1.11319e-014 -3.18055e-014
lhumerus -48.3832 -38.3577 76.1864
lradius 128.109
lwrist 51.0369
lhand 4.26837 -9.80297
lfingers 7.12502
lthumb 29.6719 17.8432
rfemur -33.2417 -9.07161 21.9154
rtibia 53.1807
rfoot -23.4921 7.01326
rtoes -21.7519
lfemur -39.5872 14.9489 -6.86999
ltibia 63.7233
lfoot -27.7279 -2.49507
ltoes -58.2606
403
root -0.269753 16.9727 4.32617 8.02578 -4.4858 -8.35165
lowerback 26.2065 -0.712614 -7.92485
upperback 1.30003 -4.26466 -6.94532
thorax -13.2493 -1.72891 -1.87922
lowerneck -10.277 2.07123 5.58494
upperneck 35.7267 -4.19715 15.9011
head 14.5223 0.755071 4.94915
rclavicle 9.54166e-015 -2.8625e-014
rhumerus 19.0015 -40.5867 -12.47
rradius 124.831
rwrist -77.1662
rhand 44.6644 -22.376
rfingers 7.12502
rthumb 66.13 -27.5517
lclavicle 9.54166e-015 -2.8625e-014
lhumerus -48.9957 -38.7718 78.7238
lradius 127.871
lwrist 51.3738
lhand 4.11346 -9.57506
lfingers 7.12502
lthumb 29.524 18.0973
rfemur -33.5109 -9.30224 21.9701
rtibia 53.4077
rfoot -23.5748 7.06855
rtoes -21.53
lfemur -39.9543 14.7803 -6.89189
ltibia 63.909
lfoot -27.7429 -2.54111
ltoes -58.2234
404
root -0.270652 16.9597 4.32812 8.0653 -4.42629 -8.38024
lowerback 26.1099 -0.644925 -7.97299
upperback 1.35308 -4.16019 -6.87071
thorax -13.1239 -1.67962 -1.80286
lowerneck -10.2202 2.02663 5.58238
upperneck 35.7073 -4.26403 15.9369
head 14.5079 0.727203 4.95263
rclavicle -2.38542e-014 -4.77083e-014
rhumerus 19.0939 -40.6613 -12.4499
rradius 125.3
rwrist -76.8412
rhand 43.9933 -22.4177
rfingers 7.12502
rthumb 65.6111 -28.5433
lclavicle -2.38542e-014 -4.77083e-014
lhumerus -49.6867 -39.1979 81.4395
lradius 127.695
lwrist 51.723
lhand 3.91786 -9.28278
lfingers 7.12502
lthumb 29.3373 18.4225
rfemur -33.6655 -9.32996 22.0102
rtibia 53.653
rfoot -23.6913 7.06938
rtoes -21.6648
lfemur -40.1131 14.843 -6.87421
ltibia 64.0975
lfoot -27.7842 -2.6231
ltoes -58.2146
